<?xml version="1.0" standalone="no"?>
<!DOCTYPE svg PUBLIC "-//W3C//DTD SVG 20010904//EN"
 "http://www.w3.org/TR/2001/REC-SVG-20010904/DTD/svg10.dtd">
<svg version="1.0" xmlns="http://www.w3.org/2000/svg"
 width="1000" height="500" viewBox="0 0 1000 500"
 preserveAspectRatio="xMidYMid meet">
<metadata>
Created by potrace 1.16, written by Peter Selinger 2001-2019
</metadata>
<g transform="translate(0.000000,718.000000) scale(0.100000,-0.100000)"
fill="#000000" stroke="none">
<path d="M3596 6798 c-3 -18 -8 -50 -11 -71 -8 -52 15 -94 78 -139 70 -51 166
-144 229 -224 69 -88 88 -96 203 -78 50 8 108 19 130 24 33 8 28 8 -30 4 -38
-3 -96 -8 -127 -11 -65 -6 -65 -6 -178 127 -30 36 -88 94 -129 130 -171 149
-156 130 -153 204 3 70 -4 88 -12 34z"/>
<path d="M2961 6691 c-25 -10 -62 -33 -83 -50 -73 -62 -227 -273 -275 -378
-103 -224 52 -623 312 -808 76 -55 189 -109 275 -132 92 -25 258 -24 325 1 93
36 322 199 395 282 77 88 96 220 48 324 -89 196 -638 726 -796 770 -56 15
-152 11 -201 -9z m100 -237 c10 -12 10 -20 1 -35 -9 -14 -10 -25 -2 -39 8 -14
7 -26 0 -41 -9 -15 -8 -24 1 -35 10 -13 10 -20 0 -36 -17 -27 -1 -44 26 -27
14 8 25 9 38 1 13 -7 24 -6 37 1 13 9 23 9 36 0 12 -7 24 -8 35 -1 29 16 59 0
55 -30 -3 -30 -39 -42 -64 -22 -10 9 -14 9 -14 1 0 -14 -47 -14 -56 0 -4 8 -9
8 -17 0 -15 -15 -54 -14 -60 2 -4 9 -8 9 -15 -2 -7 -10 -6 -20 1 -33 9 -14 9
-23 -1 -38 -10 -16 -10 -24 0 -40 10 -15 10 -25 2 -37 -8 -13 -8 -23 0 -35 14
-23 -3 -53 -29 -53 -27 0 -43 31 -28 55 8 12 9 21 3 25 -14 9 -12 49 2 63 9 9
9 12 0 12 -15 0 -16 46 -2 55 8 5 7 11 -1 21 -10 13 -14 12 -30 -2 -14 -12
-22 -13 -38 -4 -14 7 -27 8 -39 1 -14 -7 -25 -6 -40 5 -12 8 -22 11 -22 6 0
-26 -54 -23 -64 4 -13 35 21 62 55 43 15 -8 24 -7 35 2 13 10 20 10 36 0 15
-9 23 -10 34 0 10 8 21 9 37 2 35 -16 49 -6 32 21 -13 19 -13 25 -1 42 13 16
12 21 -1 36 -11 13 -12 21 -4 37 9 15 8 26 -1 40 -14 23 3 51 32 51 10 0 23
-7 31 -16z m436 -490 c3 -9 1 -25 -6 -35 -8 -15 -8 -24 1 -39 10 -15 10 -25 2
-37 -8 -13 -8 -23 0 -35 8 -13 8 -23 -1 -37 -16 -26 2 -44 28 -28 14 9 24 9
37 1 14 -9 22 -8 37 2 16 12 22 12 42 -1 13 -9 23 -11 23 -6 0 20 40 19 55 -1
27 -39 -20 -79 -53 -46 -10 10 -15 10 -22 -2 -7 -12 -15 -13 -37 -4 -21 8 -34
8 -46 0 -12 -8 -22 -8 -36 1 -28 17 -46 -4 -24 -29 15 -17 15 -19 -1 -37 -11
-12 -14 -21 -7 -26 14 -8 14 -48 1 -61 -8 -8 -6 -15 4 -23 22 -18 3 -51 -30
-51 -30 0 -42 25 -24 53 9 15 10 22 1 25 -14 5 -14 35 0 49 8 8 7 17 -3 32
-10 16 -10 25 -1 39 17 28 1 47 -26 31 -17 -11 -25 -11 -41 -2 -12 8 -21 9
-25 3 -9 -14 -49 -12 -63 2 -9 9 -12 9 -12 -1 0 -8 -10 -11 -27 -9 -37 4 -46
52 -13 63 11 4 27 2 35 -5 10 -8 18 -8 33 1 13 8 24 9 37 1 13 -7 24 -6 37 1
14 9 23 9 39 -2 27 -16 43 3 26 31 -9 13 -9 23 -1 35 8 13 8 23 0 35 -8 13 -8
23 2 38 9 15 9 24 1 39 -17 26 -4 51 26 51 14 0 28 -7 32 -16z"/>
<path d="M2770 5401 c0 -5 -12 -12 -27 -16 -64 -16 -113 -83 -113 -154 0 -16
-7 -35 -17 -42 -20 -17 -43 -71 -43 -102 0 -19 -8 -26 -37 -35 -22 -7 -46 -23
-56 -39 -10 -15 -16 -20 -13 -10 4 11 0 20 -12 24 -43 14 -220 102 -226 112
-10 15 -29 14 -20 -1 4 -7 -7 2 -26 19 -18 18 -36 30 -39 27 -10 -10 139 -145
151 -138 6 4 8 3 4 -4 -4 -6 12 -23 36 -40 51 -35 108 -65 108 -57 0 3 12 -5
27 -19 71 -66 346 -117 524 -97 144 16 161 26 60 35 -45 4 -106 14 -135 21
-29 8 -72 15 -95 16 -22 2 -41 7 -41 12 0 5 -11 7 -25 5 -14 -3 -25 -1 -25 3
0 5 -7 9 -16 9 -9 0 -12 -5 -8 -12 5 -7 3 -8 -5 -3 -15 9 -5 21 31 39 12 6 24
22 26 35 5 35 -25 60 -79 67 -47 6 -49 8 -49 38 0 17 5 38 10 46 8 12 14 10
37 -12 42 -41 87 -54 117 -35 34 23 37 50 9 86 -24 30 -93 58 -113 46 -10 -6
-14 6 -10 40 2 25 49 75 70 75 9 0 20 -13 25 -32 6 -17 23 -41 38 -52 26 -19
30 -19 55 -5 16 9 28 25 30 41 3 21 -7 34 -58 72 -63 48 -70 52 -70 37z"/>
<path d="M1521 5287 c-6 -28 -33 -95 -58 -147 -62 -124 -171 -239 -280 -294
-40 -20 -75 -36 -78 -36 -3 0 -3 49 1 108 7 118 1 144 -50 191 -37 35 -127 41
-173 12 -64 -40 -65 -46 -84 -370 -10 -163 -20 -332 -23 -377 l-6 -81 78 5
c72 4 81 2 145 -31 42 -21 70 -30 72 -23 2 6 8 117 15 246 6 129 13 245 16
257 3 15 27 34 76 60 130 68 243 193 313 347 32 69 62 173 53 181 -3 3 -10
-19 -17 -48z"/>
<path d="M7082 5010 c-85 -12 -183 -45 -252 -86 -139 -81 -251 -259 -262 -416
-2 -22 -8 -28 -25 -28 -31 0 -34 -36 -31 -365 l3 -280 28 -3 27 -3 0 -115 c0
-218 51 -365 165 -479 236 -236 724 -236 960 0 116 116 165 254 165 473 l0
122 -27 0 -28 0 0 325 c0 305 1 325 18 325 28 0 29 19 7 103 -55 217 -214 368
-440 416 -73 16 -234 21 -308 11z m255 -348 c51 -26 98 -82 117 -139 l15 -43
-26 0 c-23 0 -25 -3 -19 -31 3 -17 6 -164 6 -325 l0 -294 26 0 26 0 -4 -132
c-4 -148 -16 -184 -80 -245 -48 -46 -101 -65 -183 -65 -85 0 -148 26 -199 82
-48 54 -66 121 -66 252 l0 108 -27 0 -28 0 3 322 c2 312 6 349 33 333 3 -3 21
25 38 60 53 106 125 147 251 142 52 -3 88 -10 117 -25z"/>
<path d="M5404 4990 c-14 -6 -51 -77 -127 -247 -59 -132 -107 -245 -107 -251
0 -7 -11 -12 -25 -12 -18 0 -29 -9 -44 -37 -43 -87 -261 -584 -261 -598 0 -9
9 -15 25 -15 l24 0 3 -122 3 -123 435 -5 435 -5 5 -240 5 -240 185 0 185 0 5
240 5 240 70 3 c38 2 74 7 80 12 6 5 10 53 10 122 l0 113 -27 3 c-24 3 -28 8
-28 36 0 47 -15 56 -92 56 l-68 0 0 179 c0 140 -3 181 -14 190 -9 8 -68 11
-187 9 l-174 -3 -5 -185 -5 -185 -217 -3 c-120 -1 -218 1 -218 5 0 5 55 131
121 281 92 204 126 272 139 272 10 0 22 6 28 13 15 18 212 465 212 481 0 8 -7
17 -16 20 -24 9 -336 6 -360 -4z"/>
<path d="M8587 4988 c-9 -7 -60 -110 -113 -228 -116 -259 -118 -263 -116 -272
1 -5 -10 -8 -25 -8 -27 0 -33 -12 -165 -309 -76 -170 -138 -316 -138 -325 0
-10 9 -16 25 -16 l24 0 3 -122 3 -123 435 -5 435 -5 5 -240 5 -240 185 0 185
0 5 240 5 240 70 3 c39 2 73 6 77 10 4 4 8 59 9 122 l2 115 -27 3 c-22 3 -26
8 -26 36 0 47 -15 56 -92 56 l-68 0 0 179 c0 140 -3 181 -14 190 -9 8 -68 11
-187 9 l-174 -3 -5 -185 -5 -185 -217 -3 c-120 -1 -218 1 -218 6 0 9 210 483
236 534 8 16 20 25 27 22 8 -3 18 1 24 8 15 19 213 467 213 483 0 22 -25 25
-199 25 -118 0 -172 -4 -184 -12z"/>
<path d="M3783 4758 c-77 -84 -143 -206 -173 -325 -23 -86 -27 -231 -9 -315
24 -111 116 -276 172 -304 25 -13 28 -13 34 3 4 10 1 19 -8 21 -50 16 -144
168 -175 282 -55 207 15 470 170 638 16 17 28 32 25 32 -3 0 -19 -15 -36 -32z"/>
<path d="M1465 4138 c-52 -18 -205 -149 -205 -175 0 -21 9 -16 78 48 92 84
136 103 226 96 94 -8 430 -93 638 -161 198 -65 421 -154 603 -241 156 -74 191
-108 217 -207 62 -235 46 -540 -41 -768 -11 -30 -19 -56 -16 -58 10 -11 77
187 101 303 25 119 23 340 -4 474 -37 178 -61 209 -219 282 -392 181 -777 312
-1155 394 -126 27 -175 30 -223 13z"/>
<path d="M3910 4092 c-19 -9 -45 -32 -57 -51 -23 -34 -23 -34 -23 -443 0 -225
3 -408 8 -406 118 60 127 63 210 63 l82 0 0 365 c0 360 0 366 -22 410 -39 74
-122 100 -198 62z"/>
<path d="M803 2999 c-108 -22 -193 -128 -193 -241 0 -43 2 -45 38 -20 49 33
96 46 167 46 83 0 138 -23 173 -74 20 -29 22 -45 22 -149 1 -131 19 -194 80
-270 43 -56 63 -65 105 -51 32 10 35 15 35 48 -1 98 -54 253 -111 325 -28 35
-30 41 -21 81 31 147 -60 285 -203 304 -33 4 -74 5 -92 1z"/>
<path d="M7490 2533 c-75 -29 -114 -144 -89 -255 25 -107 155 -142 230 -62 22
23 24 34 24 117 0 51 4 95 8 98 13 9 -20 66 -48 85 -27 17 -100 28 -125 17z
m81 -65 c22 -19 47 -54 32 -44 -10 5 -13 -12 -13 -78 0 -76 -2 -86 -22 -100
-32 -22 -55 -20 -84 9 -14 14 -30 25 -37 26 -9 0 -9 2 1 6 8 3 12 27 12 69 0
55 4 68 27 94 28 32 59 38 84 18z"/>
<path d="M6507 2433 c-4 -54 -7 -133 -7 -175 l0 -78 120 0 120 0 0 30 0 30
-84 0 c-82 0 -84 0 -89 26 -10 53 0 64 59 64 53 0 54 0 54 30 0 30 -1 30 -54
30 -45 0 -54 3 -59 20 -3 11 -1 20 3 20 5 0 10 10 12 23 3 20 9 22 86 25 80 3
82 3 82 27 l0 25 -119 0 -118 0 -6 -97z"/>
<path d="M6797 2433 c-4 -54 -7 -133 -7 -175 l0 -78 35 0 35 0 0 75 c0 73 1
75 24 75 16 0 27 -7 31 -20 3 -11 11 -20 16 -20 5 0 9 -7 9 -15 0 -9 9 -34 20
-55 18 -35 25 -40 54 -40 l34 0 -21 50 c-15 36 -27 50 -41 51 -12 0 -15 3 -9
6 8 3 11 14 7 29 -4 14 -2 24 5 24 18 0 51 43 51 66 0 12 5 24 11 26 16 5 -15
74 -39 87 -12 6 -63 11 -115 11 l-94 0 -6 -97z"/>
<path d="M7110 2475 c0 -30 -3 -55 -7 -55 -5 0 -6 -29 -5 -65 4 -64 4 -65 32
-65 19 0 29 6 33 20 3 13 14 20 30 20 21 0 29 -11 58 -75 33 -75 33 -75 72
-75 l39 0 -40 73 -40 73 28 25 c16 13 32 34 35 47 6 20 3 22 -27 22 -22 0 -37
-7 -46 -20 -9 -16 -23 -20 -62 -20 -47 0 -50 2 -50 25 0 14 5 25 10 25 6 0 10
12 10 26 0 26 2 26 47 21 33 -3 52 -11 62 -26 18 -28 71 -29 71 -2 0 11 -12
33 -26 50 -26 31 -26 31 -125 31 l-99 0 0 -55z"/>
<path d="M7726 2483 c1 -27 -2 -54 -8 -60 -7 -9 -8 -53 -3 -128 l7 -115 29 0
29 0 0 76 0 75 26 -3 c28 -3 46 -30 78 -109 14 -35 20 -39 51 -39 19 0 35 2
35 5 0 3 -16 37 -35 75 -40 79 -40 80 -21 80 20 0 46 39 46 67 0 13 5 23 11
23 19 0 0 53 -27 78 -22 20 -36 22 -123 22 l-98 0 3 -47z"/>
<path d="M3892 1956 c-54 -18 -106 -57 -137 -105 -30 -44 -47 -132 -37 -181 7
-31 4 -40 -33 -85 -63 -79 -125 -236 -125 -320 0 -28 5 -33 37 -43 31 -10 40
-8 64 9 83 59 139 189 139 322 0 99 20 140 84 171 74 36 243 12 287 -40 23
-28 39 -16 39 30 0 94 -47 175 -128 219 -62 33 -132 42 -190 23z"/>
</g>
</svg>
