<?xml version="1.0" standalone="no"?>
<!DOCTYPE svg PUBLIC "-//W3C//DTD SVG 20010904//EN"
 "http://www.w3.org/TR/2001/REC-SVG-20010904/DTD/svg10.dtd">
<svg version="1.0" xmlns="http://www.w3.org/2000/svg"
 width="450.000000pt" height="360.000000pt" viewBox="0 0 450.000000 360.000000"
 preserveAspectRatio="xMidYMid meet">
<metadata>
Created by potrace 1.16, written by Peter Selinger 2001-2019
</metadata>
<g transform="translate(0.000000,360.000000) scale(0.100000,-0.100000)"
fill="#000000" stroke="none">
<path d="M2380 2120 l0 -40 590 0 590 0 0 40 0 40 -590 0 -590 0 0 -40z"/>
<path d="M2868 2062 l-488 -2 0 -35 0 -35 590 0 590 0 0 34 c0 29 -4 34 -27
39 -16 3 -32 1 -37 -4 -6 -5 -2 -9 12 -9 17 0 22 -6 22 -25 0 -20 -5 -25 -25
-25 -21 0 -25 5 -25 30 0 24 -4 30 -22 31 -13 0 -41 1 -63 2 -22 1 -259 1
-527 -1z"/>
<path d="M2380 1860 l0 -40 595 0 595 0 0 40 0 40 -595 0 -595 0 0 -40z"/>
<path d="M922 1808 c-9 -9 -12 -152 -12 -580 l0 -568 -160 0 -160 0 0 -34 c0
-70 -47 -66 884 -66 l834 0 1 80 1 80 -655 0 -655 0 0 510 0 510 655 0 655 0
0 40 0 40 -688 0 c-522 0 -691 -3 -700 -12z"/>
<path d="M2408 1802 c-25 -3 -28 -8 -28 -37 l0 -35 498 -2 c273 -2 541 -2 595
0 l97 3 0 34 c0 33 -2 35 -32 35 -396 3 -1110 4 -1130 2z"/>
<path d="M2370 1610 l0 -40 596 0 595 0 -3 38 -3 37 -592 3 -593 2 0 -40z"/>
<path d="M2370 1510 l0 -40 593 2 592 3 3 38 3 37 -595 0 -596 0 0 -40z"/>
<path d="M1709 1425 c-37 -20 -59 -82 -59 -166 0 -116 40 -169 130 -169 95 0
148 128 108 262 -23 77 -108 112 -179 73z m118 -75 c18 -35 16 -135 -2 -170
-13 -24 -22 -30 -50 -30 -49 0 -65 28 -65 115 0 90 16 117 68 113 27 -2 40 -9
49 -28z"/>
<path d="M2023 1428 c-83 -40 -84 -281 -2 -323 60 -32 144 -10 169 44 18 38
24 149 11 198 -21 78 -105 116 -178 81z m114 -78 c7 -14 13 -52 13 -85 0 -81
-15 -109 -62 -113 -52 -4 -68 23 -68 113 0 90 16 117 68 113 27 -2 40 -9 49
-28z"/>
<path d="M1352 1333 l3 -98 27 -1 c15 -1 35 7 44 17 36 40 104 12 104 -42 0
-61 -66 -92 -105 -49 -10 11 -31 20 -47 20 -32 0 -32 0 -17 -33 16 -34 60 -57
112 -57 86 0 134 72 108 161 -18 61 -85 84 -153 54 -16 -6 -18 -1 -18 34 l0
41 80 0 c79 0 80 0 80 25 l0 25 -110 0 -111 0 3 -97z"/>
<path d="M2376 1392 c-3 -3 -6 -20 -6 -39 l0 -33 90 0 90 0 0 30 c0 26 4 30
26 30 23 0 26 -3 22 -30 l-5 -30 484 0 484 0 -3 38 -3 37 -587 1 c-323 1 -589
-1 -592 -4z"/>
<path d="M2370 1260 l0 -40 595 0 595 0 0 40 0 40 -595 0 -595 0 0 -40z"/>
<path d="M2377 1133 c-4 -3 -7 -21 -7 -40 l0 -33 595 0 595 0 0 40 0 40 -588
0 c-324 0 -592 -3 -595 -7z"/>
<path d="M2370 1000 l0 -40 595 0 595 0 0 40 0 40 -595 0 -595 0 0 -40z"/>
<path d="M2380 720 l0 -70 590 0 590 0 0 70 0 70 -590 0 -590 0 0 -70z m1160
25 c0 -13 -70 -15 -570 -15 -500 0 -570 2 -570 15 0 13 70 15 570 15 500 0
570 -2 570 -15z m0 -55 c0 -7 -197 -10 -570 -10 -373 0 -570 3 -570 10 0 7
197 10 570 10 373 0 570 -3 570 -10z"/>
</g>
</svg>
